<svg xmlns="http://www.w3.org/2000/svg" viewBox="0 0 64 64" fill="none">
  <defs>
    <linearGradient id="homeGradient" x1="0%" y1="0%" x2="100%" y2="100%">
      <stop offset="0%" style="stop-color:#3B82F6"/>
      <stop offset="100%" style="stop-color:#1D4ED8"/>
    </linearGradient>
    <linearGradient id="roofGradient" x1="0%" y1="0%" x2="100%" y2="100%">
      <stop offset="0%" style="stop-color:#10B981"/>
      <stop offset="100%" style="stop-color:#059669"/>
    </linearGradient>
  </defs>
  
  <!-- House base -->
  <rect x="12" y="30" width="40" height="28" rx="3" fill="url(#homeGradient)"/>
  
  <!-- Roof -->
  <path d="M6 32 L32 8 L58 32 L54 32 L32 12 L10 32 Z" fill="url(#roofGradient)"/>
  
  <!-- Door -->
  <rect x="26" y="40" width="12" height="18" rx="2" fill="#1E3A5F"/>
  <circle cx="35" cy="50" r="1.5" fill="#F59E0B"/>
  
  <!-- Windows -->
  <rect x="16" y="36" width="8" height="8" rx="1" fill="#E0F2FE"/>
  <rect x="40" y="36" width="8" height="8" rx="1" fill="#E0F2FE"/>
  <line x1="20" y1="36" x2="20" y2="44" stroke="#3B82F6" stroke-width="1"/>
  <line x1="16" y1="40" x2="24" y2="40" stroke="#3B82F6" stroke-width="1"/>
  <line x1="44" y1="36" x2="44" y2="44" stroke="#3B82F6" stroke-width="1"/>
  <line x1="40" y1="40" x2="48" y2="40" stroke="#3B82F6" stroke-width="1"/>
  
  <!-- Chimney -->
  <rect x="44" y="14" width="6" height="12" rx="1" fill="#64748B"/>
  
  <!-- Checkmark badge -->
  <circle cx="52" cy="52" r="10" fill="#10B981"/>
  <path d="M47 52 L50 55 L57 48" stroke="white" stroke-width="2.5" stroke-linecap="round" stroke-linejoin="round" fill="none"/>
</svg>

